<svg version="1.1" id="Layer_1" xmlns="http://www.w3.org/2000/svg" xmlns:xlink="http://www.w3.org/1999/xlink" x="0px" y="0px"
	 width="100%" viewBox="0 0 458 448" enable-background="new 0 0 458 448" xml:space="preserve">
<path fill="#000000" opacity="1.000000" stroke="none" 
	d="
M269.000000,449.000000 
	C179.357925,449.000000 90.215836,449.000000 1.036879,449.000000 
	C1.036879,299.732422 1.036879,150.464859 1.036879,1.098643 
	C153.558746,1.098643 306.117584,1.098643 458.838196,1.098643 
	C458.838196,150.333191 458.838196,299.666595 458.838196,449.000000 
	C395.798157,449.000000 332.649078,449.000000 269.000000,449.000000 
M140.028702,218.659943 
	C140.377945,219.698669 140.727203,220.737381 141.076462,221.776108 
	C141.453949,221.564896 141.831451,221.353683 142.208939,221.142471 
	C141.474258,220.093857 140.739563,219.045258 140.010788,217.198685 
	C139.637619,215.048141 139.264450,212.897598 138.891281,210.747070 
	C138.426300,210.865387 137.961319,210.983704 137.496323,211.102020 
	C138.329254,213.402969 139.162186,215.703934 140.028702,218.659943 
M295.610291,388.558075 
	C301.017456,389.044952 306.418945,389.633423 311.836426,389.935730 
	C312.963562,389.998627 314.149872,389.001953 315.308899,388.493591 
	C314.120789,387.663239 312.987579,386.233887 311.733856,386.118988 
	C308.458557,385.818817 305.130524,386.093750 300.918549,386.114349 
	C295.381439,386.114349 289.844299,386.114349 284.307190,386.114349 
	C284.279755,386.597015 284.252350,387.079712 284.224915,387.562378 
	C287.806366,387.724640 291.387817,387.886932 295.610291,388.558075 
M296.839569,397.947876 
	C302.258820,398.293396 307.675476,398.740204 313.100037,398.881195 
	C313.967407,398.903717 314.870392,397.556732 315.756897,396.842865 
	C314.913513,396.241608 314.091034,395.159821 313.223206,395.122101 
	C309.433472,394.957550 305.630524,395.096100 300.926514,395.072571 
	C295.343811,395.072571 289.761108,395.072571 284.178406,395.072571 
	C284.156281,395.399048 284.134155,395.725555 284.112000,396.052032 
	C288.050476,396.656586 291.988922,397.261139 296.839569,397.947876 
M122.911095,395.082672 
	C116.761429,395.082672 110.611771,395.082672 104.462105,395.082672 
	C104.451057,395.479919 104.440018,395.877197 104.428970,396.274445 
	C109.266281,396.537720 114.103584,396.800995 119.588020,397.571198 
	C125.144897,398.076691 130.695541,398.704681 136.263733,398.987823 
	C137.425735,399.046936 138.652542,397.832123 139.849487,397.204346 
	C138.627289,396.469269 137.436401,395.172424 136.177170,395.102264 
	C132.069550,394.873474 127.936989,395.092285 122.911095,395.082672 
M213.974792,395.051117 
	C209.367004,395.051117 204.759216,395.051117 200.151428,395.051117 
	C200.138321,395.656708 200.125214,396.262299 200.112106,396.867889 
	C203.396698,396.867889 206.681290,396.867889 210.769760,397.086395 
	C216.665314,397.749817 222.552841,398.513916 228.463760,398.984222 
	C229.532867,399.069214 230.697922,397.948364 231.818680,397.384216 
	C230.653198,396.587585 229.521698,395.171021 228.316177,395.104950 
	C223.853226,394.860321 219.365875,395.061279 213.974792,395.051117 
M120.632591,388.607666 
	C126.517410,389.165833 132.395447,389.843872 138.292953,390.177856 
	C139.430405,390.242279 140.644180,388.959167 141.822739,388.297668 
	C140.785019,387.537933 139.770020,386.161896 138.705719,386.122620 
	C133.433640,385.928070 128.148529,386.086487 121.954788,386.059814 
	C115.743690,386.059814 109.532593,386.059814 103.321495,386.059814 
	C103.312210,386.349396 103.302925,386.638977 103.293640,386.928558 
	C108.853470,387.325531 114.413300,387.722534 120.632591,388.607666 
M114.035812,129.758835 
	C114.498199,131.597916 114.960587,133.436996 115.422974,135.276093 
	C115.902382,135.093781 116.381783,134.911484 116.861191,134.729187 
	C115.911476,132.817017 114.961769,130.904831 114.017250,128.062469 
	C115.310745,109.273674 116.604240,90.484886 117.897736,71.696091 
	C116.502586,76.294632 116.151489,80.970123 115.812004,85.646454 
	C114.877823,98.514450 113.904160,111.379951 113.075012,124.254730 
	C112.974556,125.814690 113.663994,127.425522 114.035812,129.758835 
M215.911072,368.149628 
	C212.017456,368.149628 208.123856,368.149628 204.230240,368.149628 
	C204.188065,368.515900 204.145889,368.882172 204.103714,369.248444 
	C208.004211,369.715668 211.904724,370.182922 216.701553,370.825806 
	C221.985886,371.338928 227.262848,372.005035 232.559601,372.259918 
	C233.922302,372.325500 235.347305,371.096252 236.743698,370.461853 
	C235.424118,369.644897 234.130554,368.179413 232.780365,368.125275 
	C227.463623,367.911987 222.129074,368.142456 215.911072,368.149628 
M122.618378,370.524719 
	C128.668655,371.158691 134.710052,371.935089 140.776291,372.312775 
	C142.070740,372.393402 143.455368,371.025482 144.798447,370.324890 
	C143.604355,369.551849 142.427902,368.146179 141.213226,368.112335 
	C135.102310,367.942078 128.981400,368.129913 121.955582,368.130585 
	C117.461006,368.130585 112.966431,368.130585 108.471855,368.130585 
	C108.460678,368.480682 108.449493,368.830780 108.438316,369.180847 
	C112.954727,369.455841 117.471138,369.730804 122.618378,370.524719 
M233.779175,305.227905 
	C233.520538,305.495148 233.261887,305.762360 232.593964,306.547241 
	C230.968750,307.693390 229.343536,308.839539 227.125702,310.133057 
	C226.944305,310.721710 226.423813,311.500427 226.631500,311.871033 
	C230.890305,319.470215 235.189346,327.048492 239.671341,334.516388 
	C239.921829,334.933746 241.819061,334.362823 243.628174,333.981140 
	C245.085663,332.968964 246.607544,332.037292 247.990173,330.931488 
	C256.719574,323.950043 265.418152,316.929962 274.759888,309.694183 
	C275.632568,308.120453 276.676910,306.616547 277.350342,304.961700 
	C282.053040,293.405731 286.678009,281.818115 291.329834,270.241455 
	C294.572845,262.170837 297.818970,254.101456 301.535248,245.689331 
	C301.697266,245.136261 301.859283,244.583206 302.560577,243.606796 
	C303.669220,241.518158 304.777863,239.429535 306.590302,236.984390 
	C317.734253,232.250610 328.878204,227.516815 340.703064,222.626373 
	C341.127045,221.554810 341.637207,220.508682 341.962341,219.407928 
	C349.608673,193.523102 357.300140,167.651245 364.815063,141.728256 
	C366.500061,135.915680 367.554596,129.920319 369.268982,123.463135 
	C369.109497,121.671341 368.950012,119.879547 368.981873,117.201088 
	C367.996918,106.223412 367.026733,95.244392 366.023499,84.268394 
	C364.615967,68.869392 363.183899,53.472637 361.879272,37.205399 
	C361.789215,35.459198 361.699158,33.712997 361.695190,31.373329 
	C361.146393,30.882420 360.597595,30.391510 359.893250,29.883202 
	C359.893250,29.883202 359.866119,30.037367 359.905762,29.265329 
	C357.984161,29.366449 355.676056,28.807106 354.200562,29.670567 
	C338.954132,38.592747 323.842041,47.744461 308.692719,56.832649 
	C300.143646,61.961323 291.595001,67.090691 282.213318,72.208839 
	C268.599976,69.294151 254.986603,66.379463 240.802032,63.342480 
	C240.802032,66.491234 240.802032,68.296928 240.802017,70.102623 
	C240.801910,99.054352 240.794800,128.006073 240.817200,156.957794 
	C240.818741,158.943695 241.041611,160.929413 240.938202,163.838379 
	C241.008865,173.906036 241.079544,183.973694 240.931580,194.951721 
	C240.931580,221.466522 240.931580,247.981323 240.931580,275.051483 
	C246.399734,275.051483 251.192947,275.051483 255.960449,275.840118 
	C255.744415,277.116089 255.701859,278.452515 255.282135,279.657532 
	C253.516434,284.727051 251.588882,289.565094 244.524445,288.179504 
	C243.481400,287.974945 242.141983,289.281525 240.893433,290.795166 
	C240.842407,293.494293 240.791382,296.193451 240.107071,299.112518 
	C238.756165,300.771820 237.405258,302.431122 235.745712,304.510132 
	C235.279556,304.727264 234.813416,304.944397 233.779175,305.227905 
M333.395172,351.536560 
	C329.118805,351.367767 324.831238,351.336731 320.569336,350.990112 
	C316.583649,350.665985 315.788818,352.635803 316.002747,356.097382 
	C316.759979,368.351105 317.340820,380.615692 318.052399,392.872467 
	C318.137878,394.344025 318.274475,396.002594 319.007294,397.192902 
	C319.730316,398.367340 321.201752,399.771271 322.411682,399.836609 
	C327.725403,400.123535 333.072052,400.121887 338.385559,399.834076 
	C339.505035,399.773438 340.978363,398.271637 341.528809,397.082245 
	C343.711884,392.364960 345.500214,387.466797 347.608521,382.712708 
	C350.833923,375.439514 354.254211,368.252808 357.485992,360.982361 
	C358.789398,358.050049 359.813538,354.993591 361.294281,351.134979 
	C355.555450,351.134979 350.760101,350.929504 346.006134,351.282166 
	C344.845032,351.368286 343.321716,353.090027 342.814697,354.390930 
	C340.040222,361.509918 337.530548,368.732056 334.394135,375.300537 
	C334.215820,367.549591 334.037506,359.798615 333.395172,351.536560 
M152.397278,342.543945 
	C149.949860,356.023041 147.502441,369.502167 144.982574,383.619659 
	C144.954956,384.047119 144.927338,384.474548 144.446487,385.531189 
	C143.658020,389.677185 142.869553,393.823181 142.479980,398.638245 
	C143.347351,399.064423 144.210571,399.850952 145.082718,399.860992 
	C153.745544,399.960724 162.434830,400.352203 171.067657,399.838379 
	C183.108002,399.121826 192.194504,393.366608 195.511734,381.350769 
	C197.521439,374.071136 198.480179,366.365784 198.845673,358.800201 
	C199.370941,347.927063 193.283752,342.102783 182.470856,342.051392 
	C172.640228,342.004669 162.809067,342.069183 152.397278,342.543945 
M251.066681,350.785919 
	C249.406906,350.877441 247.606689,350.600372 246.126862,351.164185 
	C244.649384,351.727142 242.572403,352.956848 242.336578,354.194885 
	C239.730026,367.878998 237.401291,381.616669 235.072372,395.352570 
	C234.562347,398.360657 235.680115,400.043304 239.106644,399.994141 
	C247.264343,399.877106 255.427109,400.063202 263.582428,399.882843 
	C264.976837,399.852020 267.283875,398.871674 267.554108,397.886780 
	C268.482483,394.503174 268.693451,390.922791 269.236359,386.994232 
	C264.656403,386.994232 260.822174,387.221588 257.040710,386.874420 
	C255.663818,386.748016 254.412582,385.252930 253.104019,384.382263 
	C254.349472,382.934174 255.335693,380.824677 256.907288,380.208740 
	C258.788361,379.471497 261.184082,379.843018 263.331055,380.030426 
	C268.080658,380.445038 268.389587,376.768097 268.658997,373.815857 
	C269.012543,369.941864 265.601227,371.337555 263.572540,371.059296 
	C262.099548,370.857208 260.424896,371.378876 259.127533,370.859772 
	C257.914490,370.374390 257.079865,368.943298 256.078674,367.928436 
	C257.130737,366.965240 258.083038,365.348572 259.254883,365.169647 
	C262.023438,364.746887 264.959717,365.357239 267.702972,364.859589 
	C269.305359,364.568939 271.298859,363.268005 272.006531,361.862701 
	C273.536346,358.824768 274.351379,355.426849 275.884888,350.925293 
	C267.386780,350.779633 259.645050,350.646942 251.066681,350.785919 
M190.362564,173.920105 
	C186.362839,173.976532 185.664368,176.501724 186.388306,179.657959 
	C187.443787,184.259598 191.007370,185.969803 195.255707,186.184814 
	C199.529648,186.401093 203.141571,184.776947 204.882446,180.605057 
	C206.565948,176.570679 204.655960,174.036377 200.115570,173.943268 
	C197.139603,173.882233 194.161560,173.922897 190.362564,173.920105 
M145.354935,359.450684 
	C136.683701,358.842224 128.024872,358.511200 119.429062,360.303284 
	C127.432907,361.934113 135.427383,362.989502 143.449158,363.760803 
	C146.013870,364.007355 147.027847,362.448822 145.354935,359.450684 
M308.799561,354.411835 
	C310.474091,353.985870 312.148621,353.559875 313.823151,353.133881 
	C312.208801,352.106415 310.627289,350.257416 308.974518,350.191315 
	C301.140137,349.878143 293.286285,350.051453 285.439392,350.051453 
	C285.411987,350.754211 285.384552,351.456970 285.357117,352.159729 
	C292.892120,352.835907 300.427124,353.512085 308.799561,354.411835 
M230.864807,381.192841 
	C232.195084,380.791382 233.525345,380.389954 234.855606,379.988495 
	C234.197617,379.011139 233.562866,377.203278 232.878067,377.184082 
	C225.542862,376.978882 218.199768,377.056427 210.858826,377.056427 
	C210.818176,377.713135 210.777527,378.369873 210.736877,379.026581 
	C217.164566,379.710236 223.592270,380.393921 230.864807,381.192841 
M298.606995,376.967224 
	C295.973633,377.086761 293.340302,377.206329 290.706940,377.325897 
	C290.704712,377.878998 290.702454,378.432098 290.700226,378.985199 
	C298.496094,379.907013 306.291992,380.828796 314.187378,381.762390 
	C315.519806,378.652649 314.934143,377.009308 311.561554,376.993988 
	C307.566833,376.975830 303.572021,376.970856 298.606995,376.967224 
M126.722069,376.998322 
	C124.469276,377.152283 122.216492,377.306244 119.963699,377.460205 
	C119.969193,378.032990 119.974686,378.605774 119.980179,379.178558 
	C127.390526,380.033661 134.800873,380.888763 142.176102,381.739838 
	C144.152756,378.255219 143.113708,376.924866 139.584320,376.980499 
	C135.611420,377.043121 131.636841,376.999054 126.722069,376.998322 
M130.373154,344.000061 
	C135.136383,344.624725 139.886246,345.452911 144.669876,345.766724 
	C146.408173,345.880737 148.226959,344.767365 150.009018,344.213989 
	C149.828018,343.551514 149.647018,342.889008 149.466003,342.226501 
	C138.516708,342.226501 127.567406,342.226501 116.618103,342.226501 
	C116.617073,342.417267 116.616043,342.608032 116.615013,342.798767 
	C120.895546,343.192200 125.176071,343.585632 130.373154,344.000061 
M311.746124,368.048798 
	C304.969269,368.193787 298.192413,368.338776 291.415558,368.483765 
	C291.408264,369.100311 291.400970,369.716858 291.393677,370.333405 
	C298.956909,371.129181 306.520142,371.924988 315.570618,372.877258 
	C314.013733,370.463165 313.281372,369.327515 311.746124,368.048798 
M231.994507,390.422333 
	C232.650040,389.307098 233.305573,388.191864 234.271057,386.549316 
	C226.103775,386.549316 218.917191,386.549316 211.730591,386.549316 
	C211.685867,387.103516 211.641144,387.657715 211.596405,388.211914 
	C218.139923,388.952911 224.683441,389.693909 231.994507,390.422333 
M133.605713,351.034668 
	C129.737854,350.846436 125.869995,350.658234 122.002136,350.470001 
	C121.969734,351.069000 121.937325,351.668030 121.904915,352.267029 
	C129.816757,353.140778 137.724457,354.058594 145.648300,354.805176 
	C146.287262,354.865387 147.037079,353.749115 147.735367,353.179535 
	C146.989334,352.486176 146.278717,351.244171 145.491226,351.193359 
	C141.863052,350.959137 138.213455,351.057007 133.605713,351.034668 
M210.916672,359.492340 
	C210.054321,359.696899 209.191971,359.901428 208.329620,360.105957 
	C217.174957,361.709320 225.824600,362.785736 234.500137,363.578796 
	C235.747299,363.692810 237.119247,362.441589 238.433441,361.822144 
	C238.232651,361.128601 238.031860,360.435028 237.831070,359.741455 
	C229.102066,359.741455 220.373077,359.741455 210.916672,359.492340 
M228.614441,353.984558 
	C231.393173,354.285553 234.167847,354.726990 236.952927,354.807007 
	C237.857544,354.833008 238.789322,353.913940 239.708694,353.427155 
	C238.888260,352.649384 238.082916,351.215546 237.245041,351.196228 
	C229.648026,351.021454 222.045319,351.093811 214.444290,351.093811 
	C214.409027,351.495789 214.373779,351.897766 214.338516,352.299774 
	C218.792923,352.854218 223.247330,353.408661 228.614441,353.984558 
M310.533295,363.632385 
	C311.615631,363.209076 312.697937,362.785797 313.780273,362.362488 
	C312.961670,361.552429 312.160522,360.060699 311.321716,360.039246 
	C304.066895,359.853485 296.805298,359.932281 289.545715,359.932281 
	C289.512360,360.401459 289.479034,360.870667 289.445709,361.339844 
	C296.210175,362.019714 302.974640,362.699585 310.533295,363.632385 
M120.585838,28.290220 
	C119.799706,37.103477 119.013573,45.916737 118.227440,54.729992 
	C119.414230,54.351559 119.796295,53.820156 119.868340,53.249607 
	C120.894569,45.122391 121.896355,36.991806 122.793968,28.849899 
	C122.822655,28.589745 121.678566,28.200298 120.585838,28.290220 
M224.584732,67.507072 
	C229.029678,66.875290 233.474625,66.243507 237.919571,65.611725 
	C237.822479,65.124763 237.725388,64.637802 237.628296,64.150841 
	C233.418945,65.162766 229.209595,66.174683 224.584732,67.507072 
M127.195885,175.405518 
	C127.323349,175.476791 127.476219,175.628952 127.571869,175.598907 
	C127.691498,175.561340 127.852272,175.366745 127.842896,175.252441 
	C127.773811,174.409805 127.666718,173.570282 127.571587,172.729782 
	C127.320641,172.758011 127.069695,172.786240 126.818741,172.814468 
	C126.895630,173.530563 126.972527,174.246674 127.195885,175.405518 
M129.058243,181.971939 
	C129.240768,182.180466 129.423279,182.388992 129.605804,182.597519 
	C129.693893,182.471725 129.867752,182.337509 129.856339,182.221527 
	C129.774033,181.385391 129.654190,180.552963 129.546249,179.719360 
	C129.295547,179.750854 129.044861,179.782333 128.794159,179.813828 
	C128.853973,180.376953 128.913788,180.940094 129.058243,181.971939 
M125.783432,169.384399 
	C125.971596,169.227783 126.159760,169.071167 126.347923,168.914551 
	C126.255524,168.814133 126.163116,168.713730 126.070717,168.613312 
	C125.902466,168.791718 125.734215,168.970123 125.783432,169.384399 
M136.606735,207.120926 
	C136.845490,207.141418 137.084229,207.161911 137.322983,207.182404 
	C137.326462,207.047028 137.329926,206.911667 137.333405,206.776291 
	C137.093643,206.784790 136.853882,206.793274 136.606735,207.120926 
z"/>
<path fill="#B875ED" opacity="1.000000" stroke="none" 
	d="
M241.161560,162.915222 
	C241.041611,160.929413 240.818741,158.943695 240.817200,156.957794 
	C240.794800,128.006073 240.801910,99.054352 240.802017,70.102623 
	C240.802032,68.296928 240.802032,66.491234 240.802032,63.342480 
	C254.986603,66.379463 268.599976,69.294151 282.614349,72.419952 
	C282.998474,72.905708 282.990479,73.180595 282.645874,73.732117 
	C282.099243,75.142632 281.773499,76.270432 281.715454,77.411842 
	C280.770569,96.000443 279.809906,114.588493 278.958344,133.181503 
	C278.381042,145.786209 277.967834,158.398422 277.296021,171.367737 
	C275.207214,171.907486 273.136902,172.664490 271.427399,172.171188 
	C261.292419,169.246597 251.241043,166.032181 241.161560,162.915222 
z"/>
<path fill="#B774EC" opacity="1.000000" stroke="none" 
	d="
M282.991364,73.455734 
	C282.990479,73.180595 282.998474,72.905708 283.030762,72.425415 
	C291.595001,67.090691 300.143646,61.961323 308.692719,56.832649 
	C323.842041,47.744461 338.954132,38.592747 354.200562,29.670567 
	C355.676056,28.807106 357.984161,29.366449 359.563232,29.755552 
	C355.704865,36.816078 352.020508,43.305202 348.789948,50.012878 
	C347.966736,51.722157 348.056122,54.280949 348.620636,56.184109 
	C353.385040,72.246567 358.325165,88.257439 363.321869,104.249611 
	C363.767242,105.675041 364.985779,106.858894 365.885803,108.127045 
	C365.926422,108.099144 365.877625,108.013527 365.664764,108.385086 
	C365.603943,109.868988 365.755981,110.981331 365.916504,112.461754 
	C366.880188,114.582466 367.835358,116.335106 368.790527,118.087753 
	C368.950012,119.879547 369.109497,121.671341 368.860718,123.680534 
	C368.452423,123.897934 367.991974,123.919731 367.728119,123.706177 
	C364.836212,122.078781 362.149475,120.763329 359.589233,119.235870 
	C334.044647,103.995834 308.520966,88.720856 282.991364,73.455734 
z"/>
<path fill="#5C1397" opacity="1.000000" stroke="none" 
	d="
M302.021332,244.030136 
	C301.859283,244.583206 301.697266,245.136261 300.967590,245.954559 
	C296.662842,253.900345 292.934998,261.585419 289.182465,269.258423 
	C288.189240,271.289337 287.119873,273.282928 286.085449,275.293640 
	C285.301208,277.030823 286.153748,279.870178 285.115021,281.064270 
	C283.237152,283.222931 282.986847,285.499969 282.095886,287.904816 
	C279.402893,295.173401 275.462311,301.979828 271.584167,309.058472 
	C265.666748,309.743347 260.173126,310.336182 254.633759,310.954407 
	C254.588013,310.979767 254.502975,311.040741 254.251526,310.778931 
	C249.614990,307.524323 245.229919,304.531494 240.851593,301.204712 
	C240.819016,300.211365 240.779678,299.551971 240.740341,298.892578 
	C240.791382,296.193451 240.842407,293.494293 241.379532,290.331726 
	C254.237289,289.640808 254.551056,289.413788 257.908600,278.183807 
	C258.142426,277.401764 258.594574,276.559601 258.464294,275.831390 
	C258.346558,275.173248 257.569916,274.632996 257.047363,273.610107 
	C257.649170,266.887482 258.292664,260.596039 258.924561,254.303482 
	C260.704010,236.584946 262.419037,218.859406 264.349518,201.157379 
	C264.538269,199.426422 266.042145,197.838898 267.074829,196.483582 
	C268.842560,198.672546 270.443695,200.587204 272.104218,202.448883 
	C281.958405,213.497101 291.826324,224.533066 301.374756,235.851761 
	C301.380371,238.763641 301.700867,241.396881 302.021332,244.030136 
z"/>
<path fill="#B874ED" opacity="1.000000" stroke="none" 
	d="
M301.689667,235.573135 
	C291.826324,224.533066 281.958405,213.497101 272.104218,202.448883 
	C270.443695,200.587204 268.842560,198.672546 267.073639,196.001129 
	C266.837708,194.262756 266.742188,193.305603 266.726257,192.019409 
	C268.157166,187.956772 270.595520,186.054276 274.762543,186.667160 
	C276.383118,186.905518 278.068878,186.700806 280.199249,186.804688 
	C285.676636,186.433929 291.387543,188.915451 295.477478,183.259247 
	C297.277374,181.887054 298.794250,180.693451 300.623962,179.423859 
	C301.955109,178.597488 302.973419,177.847107 304.320923,177.025238 
	C305.301086,176.351379 305.952118,175.749008 306.954712,175.145813 
	C308.653381,175.815628 310.397858,176.161484 311.266052,177.223602 
	C313.146149,179.523682 314.551025,182.208054 316.197235,184.704269 
	C324.053345,196.616699 331.925171,208.518784 339.789917,220.721649 
	C339.866333,221.606842 339.944244,222.194931 340.022156,222.783020 
	C328.878204,227.516815 317.734253,232.250610 305.909821,237.130066 
	C304.049438,236.708206 302.869568,236.140671 301.689667,235.573135 
z"/>
<path fill="#24083B" opacity="1.000000" stroke="none" 
	d="
M144.899719,384.902008 
	C144.927338,384.474548 144.954956,384.047119 145.356537,383.170837 
	C148.146393,369.176208 150.562271,355.630432 152.978149,342.084656 
	C162.809067,342.069183 172.640228,342.004669 182.470856,342.051392 
	C193.283752,342.102783 199.370941,347.927063 198.845673,358.800201 
	C198.480179,366.365784 197.521439,374.071136 195.511734,381.350769 
	C192.194504,393.366608 183.108002,399.121826 171.067657,399.838379 
	C162.434830,400.352203 153.745544,399.960724 145.082718,399.860992 
	C144.210571,399.850952 143.347351,399.064423 142.611969,398.184875 
	C144.771286,393.674896 146.993027,389.650970 144.899719,384.902008 
M165.521393,368.032990 
	C165.030304,370.794159 164.451996,373.543182 164.064148,376.318756 
	C162.799728,385.367584 164.503326,386.870941 173.428741,383.940948 
	C175.220840,383.352631 177.284821,381.224792 177.750183,379.425720 
	C178.939957,374.826324 179.555634,370.032471 179.934326,365.279205 
	C180.614853,356.737488 180.473160,356.851196 171.720352,356.925262 
	C168.458038,356.952881 166.772202,357.805237 166.808655,361.361603 
	C166.828598,363.306671 166.148560,365.258881 165.521393,368.032990 
z"/>
<path fill="#B874EC" opacity="1.000000" stroke="none" 
	d="
M266.646637,192.348465 
	C266.742188,193.305603 266.837708,194.262756 266.934448,195.702347 
	C266.042145,197.838898 264.538269,199.426422 264.349518,201.157379 
	C262.419037,218.859406 260.704010,236.584946 258.924561,254.303482 
	C258.292664,260.596039 257.649170,266.887482 256.846375,273.762054 
	C256.449921,274.580292 256.218048,274.815887 255.986145,275.051483 
	C251.192947,275.051483 246.399734,275.051483 240.931580,275.051483 
	C240.931580,247.981323 240.931580,221.466522 241.495728,194.557251 
	C248.297104,194.163361 254.539520,194.306885 260.768555,194.081100 
	C262.746246,194.009415 264.688293,192.953827 266.646637,192.348465 
z"/>
<path fill="#24093B" opacity="1.000000" stroke="none" 
	d="
M334.929871,375.918762 
	C337.530548,368.732056 340.040222,361.509918 342.814697,354.390930 
	C343.321716,353.090027 344.845032,351.368286 346.006134,351.282166 
	C350.760101,350.929504 355.555450,351.134979 361.294281,351.134979 
	C359.813538,354.993591 358.789398,358.050049 357.485992,360.982361 
	C354.254211,368.252808 350.833923,375.439514 347.608521,382.712708 
	C345.500214,387.466797 343.711884,392.364960 341.528809,397.082245 
	C340.978363,398.271637 339.505035,399.773438 338.385559,399.834076 
	C333.072052,400.121887 327.725403,400.123535 322.411682,399.836609 
	C321.201752,399.771271 319.730316,398.367340 319.007294,397.192902 
	C318.274475,396.002594 318.137878,394.344025 318.052399,392.872467 
	C317.340820,380.615692 316.759979,368.351105 316.002747,356.097382 
	C315.788818,352.635803 316.583649,350.665985 320.569336,350.990112 
	C324.831238,351.336731 329.118805,351.367767 333.281738,351.947235 
	C332.861328,360.679932 332.519012,369.001251 332.347229,377.326080 
	C332.338226,377.761627 333.778809,378.227081 334.544525,378.678650 
	C334.672974,377.758698 334.801422,376.838715 334.929871,375.918762 
z"/>
<path fill="#24083B" opacity="1.000000" stroke="none" 
	d="
M251.485016,350.650085 
	C259.645050,350.646942 267.386780,350.779633 275.884888,350.925293 
	C274.351379,355.426849 273.536346,358.824768 272.006531,361.862701 
	C271.298859,363.268005 269.305359,364.568939 267.702972,364.859589 
	C264.959717,365.357239 262.023438,364.746887 259.254883,365.169647 
	C258.083038,365.348572 257.130737,366.965240 256.078674,367.928406 
	C257.079865,368.943298 257.914490,370.374390 259.127533,370.859772 
	C260.424896,371.378876 262.099548,370.857208 263.572540,371.059296 
	C265.601227,371.337555 269.012543,369.941864 268.658997,373.815857 
	C268.389587,376.768097 268.080658,380.445038 263.331055,380.030426 
	C261.184082,379.843018 258.788361,379.471497 256.907288,380.208740 
	C255.335693,380.824677 254.349472,382.934174 253.104019,384.382263 
	C254.412582,385.252930 255.663818,386.748016 257.040710,386.874420 
	C260.822174,387.221588 264.656403,386.994232 269.236359,386.994232 
	C268.693451,390.922791 268.482483,394.503174 267.554108,397.886780 
	C267.283875,398.871674 264.976837,399.852020 263.582428,399.882843 
	C255.427109,400.063202 247.264343,399.877106 239.106644,399.994141 
	C235.680115,400.043304 234.562347,398.360657 235.072372,395.352570 
	C237.401291,381.616669 239.730026,367.878998 242.336578,354.194885 
	C242.572403,352.956848 244.649384,351.727142 246.126862,351.164185 
	C247.606689,350.600372 249.406906,350.877441 251.485016,350.650085 
z"/>
<path fill="#5D1598" opacity="1.000000" stroke="none" 
	d="
M266.726257,192.019409 
	C264.688293,192.953827 262.746246,194.009415 260.768555,194.081100 
	C254.539520,194.306885 248.297104,194.163361 241.605042,194.102081 
	C241.079544,183.973694 241.008865,173.906036 241.049896,163.376801 
	C251.241043,166.032181 261.292419,169.246597 271.427399,172.171188 
	C273.136902,172.664490 275.207214,171.907486 277.651123,171.372681 
	C280.462341,171.907532 282.733246,172.797882 284.577087,173.792633 
	C281.555420,174.716217 277.758240,172.317078 276.450836,176.493134 
	C275.279083,180.235962 277.172333,182.866776 280.149414,185.167603 
	C279.967590,185.886230 279.846252,186.292084 279.724945,186.697937 
	C278.068878,186.700806 276.383118,186.905518 274.762543,186.667160 
	C270.595520,186.054276 268.157166,187.956772 266.726257,192.019409 
z"/>
<path fill="#5D1598" opacity="1.000000" stroke="none" 
	d="
M365.845215,108.154953 
	C364.985779,106.858894 363.767242,105.675041 363.321869,104.249611 
	C358.325165,88.257439 353.385040,72.246567 348.620636,56.184109 
	C348.056122,54.280949 347.966736,51.722157 348.789948,50.012878 
	C352.020508,43.305202 355.704865,36.816078 359.543396,30.141571 
	C359.866119,30.037367 359.893250,29.883202 360.022644,30.166245 
	C360.637756,30.955124 361.123413,31.460960 361.609100,31.966797 
	C361.699158,33.712997 361.789215,35.459198 361.636536,37.992928 
	C362.094604,50.502136 362.756104,62.226337 363.507477,73.944778 
	C364.238831,85.351234 365.062225,96.751801 365.845215,108.154953 
z"/>
<path fill="#5D1A94" opacity="1.000000" stroke="none" 
	d="
M254.502975,311.040771 
	C254.502975,311.040741 254.588013,310.979767 254.637817,311.303772 
	C252.528748,315.513458 250.286194,319.355621 248.235626,323.297668 
	C246.365524,326.892792 244.703552,330.596222 242.949829,334.251892 
	C241.819061,334.362823 239.921829,334.933746 239.671341,334.516388 
	C235.189346,327.048492 230.890305,319.470215 226.631500,311.871033 
	C226.423813,311.500427 226.944305,310.721710 227.772400,310.325745 
	C237.113708,310.692566 245.808350,310.866669 254.502975,311.040771 
z"/>
<path fill="#B070E4" opacity="1.000000" stroke="none" 
	d="
M243.289001,334.116516 
	C244.703552,330.596222 246.365524,326.892792 248.235626,323.297668 
	C250.286194,319.355621 252.528748,315.513458 254.683563,311.278381 
	C260.173126,310.336182 265.666748,309.743347 271.860962,309.151123 
	C273.083313,309.408691 273.605103,309.665649 274.126892,309.922607 
	C265.418152,316.929962 256.719574,323.950043 247.990173,330.931488 
	C246.607544,332.037292 245.085663,332.968964 243.289001,334.116516 
z"/>
<path fill="#B385DA" opacity="1.000000" stroke="none" 
	d="
M190.773499,173.919067 
	C194.161560,173.922897 197.139603,173.882233 200.115570,173.943268 
	C204.655960,174.036377 206.565948,176.570679 204.882446,180.605057 
	C203.141571,184.776947 199.529648,186.401093 195.255707,186.184814 
	C191.007370,185.969803 187.443787,184.259598 186.388306,179.657959 
	C185.664368,176.501724 186.362839,173.976532 190.773499,173.919067 
z"/>
<path fill="#612E8E" opacity="1.000000" stroke="none" 
	d="
M340.362610,222.704697 
	C339.944244,222.194931 339.866333,221.606842 339.962280,220.346344 
	C342.768646,210.591217 345.392456,201.505936 348.035431,192.426254 
	C354.683014,169.589417 361.339233,146.755081 367.991974,123.919731 
	C367.991974,123.919731 368.452423,123.897934 368.675903,123.953522 
	C367.554596,129.920319 366.500061,135.915680 364.815063,141.728256 
	C357.300140,167.651245 349.608673,193.523102 341.962341,219.407928 
	C341.637207,220.508682 341.127045,221.554810 340.362610,222.704697 
z"/>
<path fill="#5D1A94" opacity="1.000000" stroke="none" 
	d="
M274.443390,309.808411 
	C273.605103,309.665649 273.083313,309.408691 272.284760,309.059052 
	C275.462311,301.979828 279.402893,295.173401 282.095886,287.904816 
	C282.986847,285.499969 283.237152,283.222931 285.115021,281.064270 
	C286.153748,279.870178 285.301208,277.030823 286.085449,275.293640 
	C287.119873,273.282928 288.189240,271.289337 289.182465,269.258423 
	C292.934998,261.585419 296.662842,253.900345 300.731812,246.125656 
	C297.818970,254.101456 294.572845,262.170837 291.329834,270.241455 
	C286.678009,281.818115 282.053040,293.405731 277.350342,304.961700 
	C276.676910,306.616547 275.632568,308.120453 274.443390,309.808411 
z"/>
<path fill="#652E93" opacity="1.000000" stroke="none" 
	d="
M365.885834,108.127045 
	C365.062225,96.751801 364.238831,85.351234 363.507477,73.944778 
	C362.756104,62.226337 362.094604,50.502136 361.578064,38.427689 
	C363.183899,53.472637 364.615967,68.869392 366.023499,84.268394 
	C367.026733,95.244392 367.996918,106.223412 368.886200,117.644417 
	C367.835358,116.335106 366.880188,114.582466 366.131775,112.205429 
	C366.184875,110.391869 366.031250,109.202698 365.877625,108.013527 
	C365.877625,108.013527 365.926422,108.099144 365.885834,108.127045 
z"/>
<path fill="#B070E4" opacity="1.000000" stroke="none" 
	d="
M254.251526,310.778961 
	C245.808350,310.866669 237.113708,310.692566 228.068710,310.252075 
	C229.343536,308.839539 230.968750,307.693390 233.093994,306.280457 
	C233.845108,305.729614 234.096176,305.445557 234.347260,305.161560 
	C234.813416,304.944397 235.279556,304.727264 236.239655,304.271118 
	C238.104004,303.200958 239.474411,302.369812 240.844833,301.538666 
	C245.229919,304.531494 249.614990,307.524323 254.251526,310.778961 
z"/>
<path fill="#220533" opacity="1.000000" stroke="none" 
	d="
M145.665878,359.683899 
	C147.027847,362.448822 146.013870,364.007355 143.449158,363.760803 
	C135.427383,362.989502 127.432907,361.934113 119.429062,360.303284 
	C128.024872,358.511200 136.683701,358.842224 145.665878,359.683899 
z"/>
<path fill="#270D3C" opacity="1.000000" stroke="none" 
	d="
M308.380859,354.300049 
	C300.427124,353.512085 292.892120,352.835907 285.357117,352.159729 
	C285.384552,351.456970 285.411987,350.754211 285.439392,350.051453 
	C293.286285,350.051453 301.140137,349.878143 308.974518,350.191315 
	C310.627289,350.257416 312.208801,352.106415 313.823151,353.133881 
	C312.148621,353.559875 310.474091,353.985870 308.380859,354.300049 
z"/>
<path fill="#270D3C" opacity="1.000000" stroke="none" 
	d="
M230.442383,381.135223 
	C223.592270,380.393921 217.164566,379.710236 210.736877,379.026581 
	C210.777527,378.369873 210.818176,377.713135 210.858826,377.056427 
	C218.199768,377.056427 225.542862,376.978882 232.878067,377.184082 
	C233.562866,377.203278 234.197617,379.011139 234.855606,379.988525 
	C233.525345,380.389954 232.195084,380.791382 230.442383,381.135223 
z"/>
<path fill="#270D3C" opacity="1.000000" stroke="none" 
	d="
M299.092133,376.963684 
	C303.572021,376.970856 307.566833,376.975830 311.561554,376.993988 
	C314.934143,377.009308 315.519806,378.652649 314.187378,381.762390 
	C306.291992,380.828796 298.496094,379.907013 290.700226,378.985199 
	C290.702454,378.432098 290.704712,377.878998 290.706940,377.325897 
	C293.340302,377.206329 295.973633,377.086761 299.092133,376.963684 
z"/>
<path fill="#270D3C" opacity="1.000000" stroke="none" 
	d="
M127.192535,376.999847 
	C131.636841,376.999054 135.611420,377.043121 139.584320,376.980499 
	C143.113708,376.924866 144.152756,378.255219 142.176102,381.739838 
	C134.800873,380.888763 127.390526,380.033661 119.980179,379.178558 
	C119.974686,378.605774 119.969193,378.032990 119.963699,377.460205 
	C122.216492,377.306244 124.469276,377.152283 127.192535,376.999847 
z"/>
<path fill="#270D3C" opacity="1.000000" stroke="none" 
	d="
M129.914886,343.989563 
	C125.176071,343.585632 120.895546,343.192200 116.615013,342.798767 
	C116.616043,342.608032 116.617073,342.417267 116.618103,342.226501 
	C127.567406,342.226501 138.516708,342.226501 149.466003,342.226501 
	C149.647018,342.889008 149.828018,343.551514 150.009018,344.213989 
	C148.226959,344.767365 146.408173,345.880737 144.669876,345.766724 
	C139.886246,345.452911 135.136383,344.624725 129.914886,343.989563 
z"/>
<path fill="#24083B" opacity="1.000000" stroke="none" 
	d="
M122.863998,368.191986 
	C128.981400,368.129913 135.102310,367.942078 141.213226,368.112335 
	C142.427902,368.146179 143.604355,369.551849 144.798447,370.324890 
	C143.455368,371.025482 142.070740,372.393402 140.776291,372.312775 
	C134.710052,371.935089 128.668655,371.158691 122.483902,370.077515 
	C122.520950,369.150848 122.692474,368.671417 122.863998,368.191986 
z"/>
<path fill="#270D3C" opacity="1.000000" stroke="none" 
	d="
M312.147552,368.120361 
	C313.281372,369.327515 314.013733,370.463165 315.570618,372.877258 
	C306.520142,371.924988 298.956909,371.129181 291.393677,370.333405 
	C291.400970,369.716858 291.408264,369.100311 291.415558,368.483765 
	C298.192413,368.338776 304.969269,368.193787 312.147552,368.120361 
z"/>
<path fill="#270D3C" opacity="1.000000" stroke="none" 
	d="
M231.610733,390.428619 
	C224.683441,389.693909 218.139923,388.952911 211.596405,388.211914 
	C211.641144,387.657715 211.685867,387.103516 211.730591,386.549316 
	C218.917191,386.549316 226.103775,386.549316 234.271057,386.549316 
	C233.305573,388.191864 232.650040,389.307098 231.610733,390.428619 
z"/>
<path fill="#270D3C" opacity="1.000000" stroke="none" 
	d="
M216.801117,368.208221 
	C222.129074,368.142456 227.463623,367.911987 232.780365,368.125275 
	C234.130554,368.179413 235.424118,369.644897 236.743683,370.461853 
	C235.347305,371.096252 233.922302,372.325500 232.559601,372.259918 
	C227.262848,372.005035 221.985886,371.338928 216.327515,370.486206 
	C216.236008,369.500488 216.518570,368.854340 216.801117,368.208221 
z"/>
<path fill="#140F19" opacity="1.000000" stroke="none" 
	d="
M113.987350,129.012772 
	C113.663994,127.425522 112.974556,125.814690 113.075012,124.254730 
	C113.904160,111.379951 114.877823,98.514450 115.812004,85.646454 
	C116.151489,80.970123 116.502586,76.294632 117.897736,71.696091 
	C116.604240,90.484886 115.310745,109.273674 114.008209,128.531677 
	C113.999168,129.000870 113.987350,129.012772 113.987350,129.012772 
z"/>
<path fill="#220533" opacity="1.000000" stroke="none" 
	d="
M134.088623,351.035217 
	C138.213455,351.057007 141.863052,350.959137 145.491226,351.193359 
	C146.278717,351.244171 146.989334,352.486176 147.735382,353.179535 
	C147.037079,353.749115 146.287262,354.865387 145.648300,354.805176 
	C137.724457,354.058594 129.816757,353.140778 121.904915,352.267029 
	C121.937325,351.668030 121.969734,351.069000 122.002136,350.470001 
	C125.869995,350.658234 129.737854,350.846436 134.088623,351.035217 
z"/>
<path fill="#24083B" opacity="1.000000" stroke="none" 
	d="
M122.868011,386.120514 
	C128.148529,386.086487 133.433640,385.928070 138.705719,386.122620 
	C139.770020,386.161896 140.785019,387.537933 141.822739,388.297668 
	C140.644180,388.959167 139.430405,390.242279 138.292953,390.177856 
	C132.395447,389.843872 126.517410,389.165833 120.504913,388.142151 
	C121.207489,387.157959 122.037750,386.639221 122.868011,386.120514 
z"/>
<path fill="#24083B" opacity="1.000000" stroke="none" 
	d="
M211.280365,359.616882 
	C220.373077,359.741455 229.102066,359.741455 237.831070,359.741455 
	C238.031860,360.435028 238.232651,361.128601 238.433441,361.822144 
	C237.119247,362.441589 235.747299,363.692810 234.500137,363.578796 
	C225.824600,362.785736 217.174957,361.709320 208.329620,360.105957 
	C209.191971,359.901428 210.054321,359.696899 211.280365,359.616882 
z"/>
<path fill="#24083B" opacity="1.000000" stroke="none" 
	d="
M228.158081,353.973816 
	C223.247330,353.408661 218.792923,352.854218 214.338516,352.299774 
	C214.373779,351.897766 214.409027,351.495789 214.444290,351.093811 
	C222.045319,351.093811 229.648026,351.021454 237.245041,351.196228 
	C238.082916,351.215546 238.888260,352.649384 239.708679,353.427124 
	C238.789322,353.913940 237.857544,354.833008 236.952927,354.807007 
	C234.167847,354.726990 231.393173,354.285553 228.158081,353.973816 
z"/>
<path fill="#24083B" opacity="1.000000" stroke="none" 
	d="
M310.136200,363.505920 
	C302.974640,362.699585 296.210175,362.019714 289.445709,361.339844 
	C289.479034,360.870667 289.512360,360.401459 289.545715,359.932281 
	C296.805298,359.932281 304.066895,359.853485 311.321716,360.039246 
	C312.160522,360.060699 312.961670,361.552429 313.780273,362.362488 
	C312.697937,362.785797 311.615631,363.209076 310.136200,363.505920 
z"/>
<path fill="#301A42" opacity="1.000000" stroke="none" 
	d="
M152.687714,342.314301 
	C150.562271,355.630432 148.146393,369.176208 145.392761,382.851624 
	C147.502441,369.502167 149.949860,356.023041 152.687714,342.314301 
z"/>
<path fill="#270D3C" opacity="1.000000" stroke="none" 
	d="
M214.887680,395.094788 
	C219.365875,395.061279 223.853226,394.860321 228.316177,395.104950 
	C229.521698,395.171021 230.653198,396.587585 231.818680,397.384216 
	C230.697922,397.948364 229.532867,399.069214 228.463760,398.984222 
	C222.552841,398.513916 216.665314,397.749817 210.649323,396.794983 
	C211.981827,396.034027 213.434753,395.564423 214.887680,395.094788 
z"/>
<path fill="#24093B" opacity="1.000000" stroke="none" 
	d="
M123.814026,395.138916 
	C127.936989,395.092285 132.069550,394.873474 136.177170,395.102264 
	C137.436401,395.172424 138.627289,396.469269 139.849487,397.204346 
	C138.652542,397.832123 137.425735,399.046936 136.263733,398.987823 
	C130.695541,398.704681 125.144897,398.076691 119.569008,397.161102 
	C120.971336,396.213654 122.392685,395.676270 123.814026,395.138916 
z"/>
<path fill="#270D3C" opacity="1.000000" stroke="none" 
	d="
M301.832397,395.124634 
	C305.630524,395.096100 309.433472,394.957550 313.223206,395.122101 
	C314.091034,395.159821 314.913513,396.241608 315.756897,396.842865 
	C314.870392,397.556732 313.967407,398.903717 313.100037,398.881195 
	C307.675476,398.740204 302.258820,398.293396 296.521179,397.587463 
	C298.079346,396.526245 299.955872,395.825439 301.832397,395.124634 
z"/>
<path fill="#270D3C" opacity="1.000000" stroke="none" 
	d="
M301.823517,386.139404 
	C305.130524,386.093750 308.458557,385.818817 311.733856,386.118988 
	C312.987579,386.233887 314.120789,387.663239 315.308899,388.493591 
	C314.149872,389.001953 312.963562,389.998627 311.836426,389.935730 
	C306.418945,389.633423 301.017456,389.044952 295.622375,388.130859 
	C297.697510,387.182220 299.760498,386.660828 301.823517,386.139404 
z"/>
<path fill="#220533" opacity="1.000000" stroke="none" 
	d="
M255.973297,275.445801 
	C256.218048,274.815887 256.449921,274.580292 256.882812,274.192749 
	C257.569916,274.632996 258.346558,275.173248 258.464294,275.831390 
	C258.594574,276.559601 258.142426,277.401764 257.908600,278.183807 
	C254.551056,289.413788 254.237289,289.640808 241.402664,289.878601 
	C242.141983,289.281525 243.481400,287.974945 244.524445,288.179504 
	C251.588882,289.565094 253.516434,284.727051 255.282135,279.657532 
	C255.701859,278.452515 255.744415,277.116089 255.973297,275.445801 
z"/>
<path fill="#301A42" opacity="1.000000" stroke="none" 
	d="
M334.661987,375.609650 
	C334.801422,376.838715 334.672974,377.758698 334.544525,378.678650 
	C333.778809,378.227081 332.338226,377.761627 332.347229,377.326080 
	C332.519012,369.001251 332.861328,360.679932 333.513733,352.202789 
	C334.037506,359.798615 334.215820,367.549591 334.661987,375.609650 
z"/>
<path fill="#140F19" opacity="1.000000" stroke="none" 
	d="
M120.833519,28.080673 
	C121.678566,28.200298 122.822655,28.589745 122.793968,28.849899 
	C121.896355,36.991806 120.894569,45.122391 119.868340,53.249607 
	C119.796295,53.820156 119.414230,54.351559 118.227440,54.729992 
	C119.013573,45.916737 119.799706,37.103477 120.833519,28.080673 
z"/>
<path fill="#462D5B" opacity="1.000000" stroke="none" 
	d="
M123.362564,395.110779 
	C122.392685,395.676270 120.971336,396.213654 119.245438,396.907654 
	C114.103584,396.800995 109.266281,396.537720 104.428970,396.274445 
	C104.440018,395.877197 104.451057,395.479919 104.462105,395.082672 
	C110.611771,395.082672 116.761429,395.082672 123.362564,395.110779 
z"/>
<path fill="#462D5B" opacity="1.000000" stroke="none" 
	d="
M122.411400,386.090149 
	C122.037750,386.639221 121.207489,387.157959 120.175186,387.898102 
	C114.413300,387.722534 108.853470,387.325531 103.293640,386.928558 
	C103.302925,386.638977 103.312210,386.349396 103.321495,386.059814 
	C109.532593,386.059814 115.743690,386.059814 122.411400,386.090149 
z"/>
<path fill="#462D5B" opacity="1.000000" stroke="none" 
	d="
M301.379456,395.098572 
	C299.955872,395.825439 298.079346,396.526245 296.065094,397.546387 
	C291.988922,397.261139 288.050476,396.656586 284.112000,396.052032 
	C284.134155,395.725555 284.156281,395.399048 284.178406,395.072571 
	C289.761108,395.072571 295.343811,395.072571 301.379456,395.098572 
z"/>
<path fill="#462D5B" opacity="1.000000" stroke="none" 
	d="
M301.371033,386.126892 
	C299.760498,386.660828 297.697510,387.182220 295.301880,387.876404 
	C291.387817,387.886932 287.806366,387.724640 284.224915,387.562378 
	C284.252350,387.079712 284.279755,386.597015 284.307190,386.114349 
	C289.844299,386.114349 295.381439,386.114349 301.371033,386.126892 
z"/>
<path fill="#5D1A94" opacity="1.000000" stroke="none" 
	d="
M301.374756,235.851761 
	C302.869568,236.140671 304.049438,236.708206 305.557922,237.308319 
	C304.777863,239.429535 303.669220,241.518158 302.290955,243.818466 
	C301.700867,241.396881 301.380371,238.763641 301.374756,235.851761 
z"/>
<path fill="#462D5B" opacity="1.000000" stroke="none" 
	d="
M122.409790,368.161285 
	C122.692474,368.671417 122.520950,369.150848 122.168488,369.818054 
	C117.471138,369.730804 112.954727,369.455841 108.438316,369.180847 
	C108.449493,368.830780 108.460678,368.480682 108.471855,368.130585 
	C112.966431,368.130585 117.461006,368.130585 122.409790,368.161285 
z"/>
<path fill="#462D5B" opacity="1.000000" stroke="none" 
	d="
M216.356094,368.178925 
	C216.518570,368.854340 216.236008,369.500488 215.879333,370.398376 
	C211.904724,370.182922 208.004211,369.715668 204.103714,369.248444 
	C204.145889,368.882172 204.188065,368.515900 204.230240,368.149628 
	C208.123856,368.149628 212.017456,368.149628 216.356094,368.178925 
z"/>
<path fill="#462D5B" opacity="1.000000" stroke="none" 
	d="
M214.431244,395.072968 
	C213.434753,395.564423 211.981827,396.034027 210.247391,396.685730 
	C206.681290,396.867889 203.396698,396.867889 200.112106,396.867889 
	C200.125214,396.262299 200.138321,395.656708 200.151428,395.051117 
	C204.759216,395.051117 209.367004,395.051117 214.431244,395.072968 
z"/>
<path fill="#301A42" opacity="1.000000" stroke="none" 
	d="
M144.673096,385.216614 
	C146.993027,389.650970 144.771286,393.674896 142.412521,397.850342 
	C142.869553,393.823181 143.658020,389.677185 144.673096,385.216614 
z"/>
<path fill="#301A42" opacity="1.000000" stroke="none" 
	d="
M224.792480,67.346832 
	C229.209595,66.174683 233.418945,65.162766 237.628296,64.150841 
	C237.725388,64.637802 237.822479,65.124763 237.919571,65.611725 
	C233.474625,66.243507 229.029678,66.875290 224.792480,67.346832 
z"/>
<path fill="#220533" opacity="1.000000" stroke="none" 
	d="
M240.851593,301.204712 
	C239.474411,302.369812 238.104004,303.200958 236.393967,304.061279 
	C237.405258,302.431122 238.756165,300.771820 240.423706,299.002563 
	C240.779678,299.551971 240.819016,300.211365 240.851593,301.204712 
z"/>
<path fill="#140F19" opacity="1.000000" stroke="none" 
	d="
M139.995117,218.004883 
	C139.162186,215.703934 138.329254,213.402969 137.496323,211.102020 
	C137.961319,210.983704 138.426300,210.865387 138.891281,210.747070 
	C139.264450,212.897598 139.637619,215.048141 140.005402,217.599335 
	C140.000000,218.000000 139.995117,218.004883 139.995117,218.004883 
z"/>
<path fill="#140F19" opacity="1.000000" stroke="none" 
	d="
M114.005615,128.996765 
	C114.961769,130.904831 115.911476,132.817017 116.861191,134.729187 
	C116.381783,134.911484 115.902382,135.093781 115.422974,135.276093 
	C114.960587,133.436996 114.498199,131.597916 114.011581,129.385803 
	C113.987350,129.012772 113.999168,129.000870 114.005615,128.996765 
z"/>
<path fill="#140F19" opacity="1.000000" stroke="none" 
	d="
M140.002441,217.998322 
	C140.739563,219.045258 141.474258,220.093857 142.208939,221.142471 
	C141.831451,221.353683 141.453949,221.564896 141.076462,221.776108 
	C140.727203,220.737381 140.377945,219.698669 140.011902,218.332413 
	C139.995117,218.004883 140.000000,218.000000 140.002441,217.998322 
z"/>
<path fill="#140F19" opacity="1.000000" stroke="none" 
	d="
M127.122650,175.184143 
	C126.972527,174.246674 126.895630,173.530563 126.818741,172.814468 
	C127.069695,172.786240 127.320641,172.758011 127.571587,172.729782 
	C127.666718,173.570282 127.773811,174.409805 127.842896,175.252441 
	C127.852272,175.366745 127.691498,175.561340 127.571869,175.598907 
	C127.476219,175.628952 127.323349,175.476791 127.122650,175.184143 
z"/>
<path fill="#140F19" opacity="1.000000" stroke="none" 
	d="
M129.015915,181.737579 
	C128.913788,180.940094 128.853973,180.376953 128.794159,179.813828 
	C129.044861,179.782333 129.295547,179.750854 129.546249,179.719360 
	C129.654190,180.552963 129.774033,181.385391 129.856339,182.221527 
	C129.867752,182.337509 129.693893,182.471725 129.605804,182.597519 
	C129.423279,182.388992 129.240768,182.180466 129.015915,181.737579 
z"/>
<path fill="#140F19" opacity="1.000000" stroke="none" 
	d="
M125.674698,169.266464 
	C125.734215,168.970123 125.902466,168.791718 126.070717,168.613312 
	C126.163116,168.713730 126.255524,168.814133 126.347923,168.914551 
	C126.159760,169.071167 125.971596,169.227783 125.674698,169.266464 
z"/>
<path fill="#140F19" opacity="1.000000" stroke="none" 
	d="
M136.610428,206.961334 
	C136.853882,206.793274 137.093643,206.784790 137.333405,206.776291 
	C137.329926,206.911667 137.326462,207.047028 137.322983,207.182404 
	C137.084229,207.161911 136.845490,207.141418 136.610428,206.961334 
z"/>
<path fill="#652E93" opacity="1.000000" stroke="none" 
	d="
M361.652161,31.670063 
	C361.123413,31.460960 360.637756,30.955124 360.100433,30.174944 
	C360.597595,30.391510 361.146393,30.882420 361.652161,31.670063 
z"/>
<path fill="#220533" opacity="1.000000" stroke="none" 
	d="
M234.063202,305.194702 
	C234.096176,305.445557 233.845108,305.729614 233.298645,306.021606 
	C233.261887,305.762360 233.520538,305.495148 234.063202,305.194702 
z"/>
<path fill="#5C1398" opacity="1.000000" stroke="none" 
	d="
M367.728119,123.706177 
	C361.339233,146.755081 354.683014,169.589417 348.035431,192.426254 
	C345.392456,201.505936 342.768646,210.591217 339.963745,220.049240 
	C331.925171,208.518784 324.053345,196.616699 316.197235,184.704269 
	C314.551025,182.208054 313.146149,179.523682 311.266052,177.223602 
	C310.397858,176.161484 308.653381,175.815628 306.589905,175.176910 
	C305.246277,175.838135 304.619019,176.467422 303.991760,177.096710 
	C302.973419,177.847107 301.955109,178.597488 300.399963,179.121460 
	C297.898773,177.300674 295.934418,175.706268 293.630432,174.082230 
	C292.856232,173.922546 292.421692,173.792511 291.861450,173.391235 
	C290.494568,173.305450 289.253357,173.490906 287.641602,173.769684 
	C286.515442,173.804749 285.759827,173.746475 285.004181,173.688232 
	C282.733246,172.797882 280.462341,171.907532 277.836304,171.012238 
	C277.967834,158.398422 278.381042,145.786209 278.958344,133.181503 
	C279.809906,114.588493 280.770569,96.000443 281.715454,77.411842 
	C281.773499,76.270432 282.099243,75.142632 282.645874,73.732117 
	C308.520966,88.720856 334.044647,103.995834 359.589233,119.235870 
	C362.149475,120.763329 364.836212,122.078781 367.728119,123.706177 
z"/>
<path fill="#5D1598" opacity="1.000000" stroke="none" 
	d="
M365.664764,108.385086 
	C366.031250,109.202698 366.184875,110.391869 366.123291,111.837357 
	C365.755981,110.981331 365.603943,109.868988 365.664764,108.385086 
z"/>
<path fill="#5D1598" opacity="1.000000" stroke="none" 
	d="
M293.970093,174.111877 
	C295.934418,175.706268 297.898773,177.300674 300.087128,179.197449 
	C298.794250,180.693451 297.277374,181.887054 295.054749,183.119476 
	C294.057556,183.105927 293.766113,183.053558 293.698608,182.662292 
	C293.938385,179.586212 293.954254,176.849045 293.970093,174.111877 
z"/>
<path fill="#9150C7" opacity="1.000000" stroke="none" 
	d="
M293.474640,183.001205 
	C293.766113,183.053558 294.057556,183.105927 294.771790,183.298065 
	C291.387543,188.915451 285.676636,186.433929 280.199249,186.804688 
	C279.846252,186.292084 279.967590,185.886230 280.531555,185.201965 
	C285.617676,187.382370 289.481262,184.769867 293.474640,183.001205 
z"/>
<path fill="#5D1598" opacity="1.000000" stroke="none" 
	d="
M304.320923,177.025238 
	C304.619019,176.467422 305.246277,175.838135 306.238342,175.177734 
	C305.952118,175.749008 305.301086,176.351379 304.320923,177.025238 
z"/>
<path fill="#000000" opacity="1.000000" stroke="none" 
	d="
M165.652802,367.620422 
	C166.148560,365.258881 166.828598,363.306671 166.808655,361.361603 
	C166.772202,357.805237 168.458038,356.952881 171.720352,356.925262 
	C180.473160,356.851196 180.614853,356.737488 179.934326,365.279205 
	C179.555634,370.032471 178.939957,374.826324 177.750183,379.425720 
	C177.284821,381.224792 175.220840,383.352631 173.428741,383.940948 
	C164.503326,386.870941 162.799728,385.367584 164.064148,376.318756 
	C164.451996,373.543182 165.030304,370.794159 165.652802,367.620422 
z"/>
<path fill="#BE84ED" opacity="1.000000" stroke="none" 
	d="
M293.698608,182.662292 
	C289.481262,184.769867 285.617676,187.382370 280.592041,184.889191 
	C277.172333,182.866776 275.279083,180.235962 276.450836,176.493134 
	C277.758240,172.317078 281.555420,174.716217 284.577087,173.792618 
	C285.759827,173.746475 286.515442,173.804749 288.031982,173.872314 
	C289.857635,173.808578 290.922394,173.735535 291.987122,173.662476 
	C292.421692,173.792511 292.856232,173.922546 293.630432,174.082230 
	C293.954254,176.849045 293.938385,179.586212 293.698608,182.662292 
z"/>
<path fill="#5D1598" opacity="1.000000" stroke="none" 
	d="
M291.861450,173.391235 
	C290.922394,173.735535 289.857635,173.808578 288.402527,173.778992 
	C289.253357,173.490906 290.494568,173.305450 291.861450,173.391235 
z"/>
</svg>